Coordinates
version=1
nRows=27
nColumns=12
inDegrees=yes

Units are S.I. units (second, meters, Newtons, ...)
Angles are in degrees

endheader
time	SC_y	SC_z	SC_x	AC_y	AC_z	AC_x	GH_y	GH_z	GH_yy	EL_x	PS_y
       0.0              -41.09           36.2          23.31          54.64         -8.967           1.49         -26.93          13.93         -1.593          83.71          26.64
   0.01941               -41.1          36.19          23.32          54.64         -8.968          1.491         -26.93          13.93         -1.591           83.7          26.65
   0.03883               -41.1          36.19          23.32          54.64         -8.968          1.492         -26.94          13.93         -1.589          83.68          26.66
   0.05824               -41.1          36.18          23.32          54.63         -8.969          1.493         -26.94          13.93         -1.587          83.67          26.67
   0.07766               -41.1          36.17          23.33          54.63          -8.97          1.495         -26.95          13.93         -1.585          83.66          26.68
   0.09707              -41.11          36.17          23.33          54.63          -8.97          1.496         -26.95          13.94         -1.582          83.64          26.69
    0.1165              -41.11          36.16          23.34          54.63         -8.971          1.498         -26.96          13.94         -1.579          83.63           26.7
    0.1359              -41.11          36.15          23.34          54.62         -8.972          1.499         -26.96          13.94         -1.576          83.61          26.72
    0.1553              -41.12          36.14          23.35          54.62         -8.973          1.501         -26.97          13.94         -1.573          83.59          26.73
    0.1747              -41.12          36.13          23.35          54.62         -8.974          1.503         -26.98          13.94          -1.57          83.57          26.75
    0.1941              -41.12          36.12          23.36          54.61         -8.975          1.505         -26.99          13.95         -1.566          83.55          26.76
    0.2136              -41.13          36.11          23.37          54.61         -8.976          1.507          -27.0          13.95         -1.562          83.53          26.78
     0.233              -41.13           36.1          23.37           54.6         -8.977           1.51         -27.01          13.95         -1.558          83.51           26.8
    0.2524              -41.14          36.09          23.38           54.6         -8.978          1.512         -27.02          13.96         -1.553          83.48          26.82
    0.2718              -41.14          36.07          23.39          54.59         -8.979          1.515         -27.03          13.96         -1.548          83.45          26.84
    0.2912              -41.15          36.06           23.4          54.59         -8.981          1.518         -27.04          13.96         -1.543          83.42          26.87
    0.3106              -41.16          36.04          23.41          54.58         -8.982          1.522         -27.05          13.97         -1.537          83.39          26.89
      0.33              -41.16          36.02          23.42          54.58         -8.984          1.525         -27.07          13.97         -1.531          83.35          26.92
    0.3495              -41.17           36.0          23.43          54.57         -8.986          1.529         -27.08          13.98         -1.524          83.31          26.95
    0.3689              -41.18          35.98          23.44          54.56         -8.988          1.533          -27.1          13.98         -1.516          83.27          26.98
    0.3883              -41.19          35.96          23.46          54.55          -8.99          1.538         -27.12          13.99         -1.508          83.23          27.02
    0.4077               -41.2          35.94          23.47          54.54         -8.992          1.543         -27.14          13.99         -1.499          83.17          27.06
    0.4271              -41.21          35.91          23.49          54.53         -8.995          1.549         -27.16           14.0         -1.489          83.12          27.11
    0.4465              -41.22          35.88          23.51          54.52         -8.998          1.556         -27.18          14.01         -1.477          83.05          27.16
    0.4659              -41.23          35.84          23.53          54.51         -9.001          1.563         -27.21          14.02         -1.465          82.98          27.21
    0.4854              -41.25           35.8          23.56           54.5         -9.005          1.571         -27.24          14.03         -1.451           82.9          27.28
    0.5048              -41.27          35.76          23.58          54.48         -9.009          1.579         -27.28          14.04         -1.435          82.82          27.34
